{
	"asset":{
		"generator":"Khronos glTF Blender I/O v5.0.21",
		"version":"2.0"
	},
	"extensionsUsed":[
		"KHR_lights_punctual"
	],
	"extensionsRequired":[
		"KHR_lights_punctual"
	],
	"extensions":{
		"KHR_lights_punctual":{
			"lights":[
				{
					"color":[
						1,
						0.9301930665969849,
						0.7382662296295166
					],
					"intensity":6830,
					"type":"directional",
					"name":"Light"
				},
				{
					"color":[
						1,
						1,
						1
					],
					"intensity":543.5141306588226,
					"type":"point",
					"name":"Point"
				}
			]
		}
	},
	"scene":1,
	"scenes":[
		{
			"name":"Prefabs",
			"nodes":[
				0
			]
		},
		{
			"name":"Scene",
			"nodes":[
				1,
				2,
				3,
				4,
				6,
				7,
				8
			]
		}
	],
	"nodes":[
		{
			"mesh":0,
			"name":"Suzanne"
		},
		{
			"extensions":{
				"KHR_lights_punctual":{
					"light":0
				}
			},
			"name":"Sun",
			"rotation":[
				-0.4336612820625305,
				0.25817224383354187,
				0.09836429357528687,
				0.8576768040657043
			],
			"translation":[
				4.076245307922363,
				5.903861999511719,
				-1.0054539442062378
			]
		},
		{
			"camera":0,
			"name":"Camera",
			"rotation":[
				-0.3125896751880646,
				0.03778122365474701,
				0.01244370173662901,
				0.9490551352500916
			],
			"translation":[
				6.2203168869018555,
				8.188614845275879,
				14.604022979736328
			]
		},
		{
			"mesh":1,
			"name":"Brushes",
			"translation":[
				5,
				0,
				5.5
			]
		},
		{
			"extensions":{
				"KHR_lights_punctual":{
					"light":1
				}
			},
			"name":"Point",
			"rotation":[
				-0.7071068286895752,
				0,
				0,
				0.7071068286895752
			],
			"translation":[
				4.5,
				0.5,
				2.25
			]
		},
		{
			"mesh":2,
			"name":"Suzanne"
		},
		{
			"children":[
				5
			],
			"name":"Suzanne.001",
			"translation":[
				4.625,
				1,
				3.75
			]
		},
		{
			"mesh":3,
			"name":"Box",
			"translation":[
				7.75,
				0,
				10
			]
		},
		{
			"mesh":4,
			"name":"Box.001",
			"translation":[
				6.375,
				0,
				10.1875
			]
		}
	],
	"cameras":[
		{
			"name":"Camera",
			"perspective":{
				"aspectRatio":1.7777777777777777,
				"yfov":0.8734815120697021,
				"zfar":100,
				"znear":0.10000000149011612
			},
			"type":"perspective"
		}
	],
	"materials":[
		{
			"name":"IMG_brick_basecolor.png",
			"normalTexture":{
				"index":0
			},
			"occlusionTexture":{
				"index":1
			},
			"pbrMetallicRoughness":{
				"baseColorTexture":{
					"index":2
				},
				"metallicRoughnessTexture":{
					"index":1
				}
			}
		},
		{
			"name":"IMG_render_basecolor.png",
			"normalTexture":{
				"index":3
			},
			"occlusionTexture":{
				"index":4
			},
			"pbrMetallicRoughness":{
				"baseColorTexture":{
					"index":5
				},
				"metallicRoughnessTexture":{
					"index":4
				}
			}
		}
	],
	"meshes":[
		{
			"name":"Suzanne",
			"primitives":[
				{
					"attributes":{
						"POSITION":0,
						"NORMAL":1,
						"TEXCOORD_0":2,
						"TEXCOORD_1":3,
						"TANGENT":4
					},
					"indices":5,
					"material":0
				}
			]
		},
		{
			"name":"Box.002",
			"primitives":[
				{
					"attributes":{
						"POSITION":6,
						"NORMAL":7,
						"TEXCOORD_0":8,
						"TEXCOORD_1":9,
						"TEXCOORD_2":10,
						"TANGENT":11
					},
					"indices":12,
					"material":1
				}
			]
		},
		{
			"name":"Suzanne",
			"primitives":[
				{
					"attributes":{
						"POSITION":13,
						"NORMAL":14,
						"TEXCOORD_0":15,
						"TEXCOORD_1":16,
						"TANGENT":17
					},
					"indices":5,
					"material":0
				}
			]
		},
		{
			"name":"Box.001",
			"primitives":[
				{
					"attributes":{
						"POSITION":18,
						"NORMAL":19
					},
					"indices":20
				}
			]
		},
		{
			"name":"Box",
			"primitives":[
				{
					"attributes":{
						"POSITION":21,
						"NORMAL":22
					},
					"indices":23
				}
			]
		}
	],
	"textures":[
		{
			"sampler":0,
			"source":0
		},
		{
			"sampler":0,
			"source":1
		},
		{
			"sampler":0,
			"source":2
		},
		{
			"sampler":0,
			"source":3
		},
		{
			"sampler":0,
			"source":4
		},
		{
			"sampler":0,
			"source":5
		}
	],
	"images":[
		{
			"mimeType":"image/png",
			"name":"brick_normal",
			"uri":"brick_normal.png"
		},
		{
			"mimeType":"image/png",
			"name":"brick_arm",
			"uri":"brick_arm.png"
		},
		{
			"mimeType":"image/png",
			"name":"brick_basecolor",
			"uri":"brick_basecolor.png"
		},
		{
			"mimeType":"image/png",
			"name":"render_normal",
			"uri":"render_normal.png"
		},
		{
			"mimeType":"image/png",
			"name":"render_arm",
			"uri":"render_arm.png"
		},
		{
			"mimeType":"image/png",
			"name":"render_basecolor",
			"uri":"render_basecolor.png"
		},
		{
			"mimeType":"image/png",
			"name":"BaseMesh_Male_M_BaseColor",
			"uri":"BaseMesh_Male_M_BaseColor.png"
		},
		{
			"mimeType":"image/png",
			"name":"Image",
			"uri":"Image.png"
		},
		{
			"mimeType":"image/png",
			"name":"Image",
			"uri":"Image-1.png"
		},
		{
			"mimeType":"image/png",
			"name":"wear_mask",
			"uri":"wear_mask.png"
		}
	],
	"accessors":[
		{
			"bufferView":0,
			"componentType":5126,
			"count":3068,
			"max":[
				1.3638324737548828,
				0.984375,
				0.8467256426811218
			],
			"min":[
				-1.3638324737548828,
				-0.984375,
				-0.8511813282966614
			],
			"type":"VEC3"
		},
		{
			"bufferView":1,
			"componentType":5126,
			"count":3068,
			"type":"VEC3"
		},
		{
			"bufferView":2,
			"componentType":5126,
			"count":3068,
			"type":"VEC2"
		},
		{
			"bufferView":3,
			"componentType":5126,
			"count":3068,
			"type":"VEC2"
		},
		{
			"bufferView":4,
			"componentType":5126,
			"count":3068,
			"type":"VEC4"
		},
		{
			"bufferView":5,
			"componentType":5123,
			"count":6126,
			"type":"SCALAR"
		},
		{
			"bufferView":6,
			"componentType":5126,
			"count":607,
			"max":[
				10.75,
				5.262499809265137,
				5.5
			],
			"min":[
				-20.25,
				-1,
				-12.5
			],
			"type":"VEC3"
		},
		{
			"bufferView":7,
			"componentType":5126,
			"count":607,
			"type":"VEC3"
		},
		{
			"bufferView":8,
			"componentType":5126,
			"count":607,
			"type":"VEC2"
		},
		{
			"bufferView":9,
			"componentType":5126,
			"count":607,
			"type":"VEC2"
		},
		{
			"bufferView":10,
			"componentType":5126,
			"count":607,
			"type":"VEC2"
		},
		{
			"bufferView":11,
			"componentType":5126,
			"count":607,
			"type":"VEC4"
		},
		{
			"bufferView":12,
			"componentType":5123,
			"count":1140,
			"type":"SCALAR"
		},
		{
			"bufferView":13,
			"componentType":5126,
			"count":3068,
			"max":[
				1.3638324737548828,
				0.984375,
				0.8467256426811218
			],
			"min":[
				-1.3638324737548828,
				-0.984375,
				-0.8511813282966614
			],
			"type":"VEC3"
		},
		{
			"bufferView":14,
			"componentType":5126,
			"count":3068,
			"type":"VEC3"
		},
		{
			"bufferView":15,
			"componentType":5126,
			"count":3068,
			"type":"VEC2"
		},
		{
			"bufferView":16,
			"componentType":5126,
			"count":3068,
			"type":"VEC2"
		},
		{
			"bufferView":17,
			"componentType":5126,
			"count":3068,
			"type":"VEC4"
		},
		{
			"bufferView":18,
			"componentType":5126,
			"count":48,
			"max":[
				2.125,
				2.3125,
				2.312500238418579
			],
			"min":[
				0,
				0,
				0
			],
			"type":"VEC3"
		},
		{
			"bufferView":19,
			"componentType":5126,
			"count":48,
			"type":"VEC3"
		},
		{
			"bufferView":20,
			"componentType":5123,
			"count":84,
			"type":"SCALAR"
		},
		{
			"bufferView":21,
			"componentType":5126,
			"count":24,
			"max":[
				1.4004641771316528,
				0.5625,
				0.2696300148963928
			],
			"min":[
				0,
				0,
				-1.5624996423721313
			],
			"type":"VEC3"
		},
		{
			"bufferView":22,
			"componentType":5126,
			"count":24,
			"type":"VEC3"
		},
		{
			"bufferView":23,
			"componentType":5123,
			"count":36,
			"type":"SCALAR"
		}
	],
	"bufferViews":[
		{
			"buffer":0,
			"byteLength":36816,
			"byteOffset":0,
			"target":34962
		},
		{
			"buffer":0,
			"byteLength":36816,
			"byteOffset":36816,
			"target":34962
		},
		{
			"buffer":0,
			"byteLength":24544,
			"byteOffset":73632,
			"target":34962
		},
		{
			"buffer":0,
			"byteLength":24544,
			"byteOffset":98176,
			"target":34962
		},
		{
			"buffer":0,
			"byteLength":49088,
			"byteOffset":122720,
			"target":34962
		},
		{
			"buffer":0,
			"byteLength":12252,
			"byteOffset":171808,
			"target":34963
		},
		{
			"buffer":0,
			"byteLength":7284,
			"byteOffset":184060,
			"target":34962
		},
		{
			"buffer":0,
			"byteLength":7284,
			"byteOffset":191344,
			"target":34962
		},
		{
			"buffer":0,
			"byteLength":4856,
			"byteOffset":198628,
			"target":34962
		},
		{
			"buffer":0,
			"byteLength":4856,
			"byteOffset":203484,
			"target":34962
		},
		{
			"buffer":0,
			"byteLength":4856,
			"byteOffset":208340,
			"target":34962
		},
		{
			"buffer":0,
			"byteLength":9712,
			"byteOffset":213196,
			"target":34962
		},
		{
			"buffer":0,
			"byteLength":2280,
			"byteOffset":222908,
			"target":34963
		},
		{
			"buffer":0,
			"byteLength":36816,
			"byteOffset":225188,
			"target":34962
		},
		{
			"buffer":0,
			"byteLength":36816,
			"byteOffset":262004,
			"target":34962
		},
		{
			"buffer":0,
			"byteLength":24544,
			"byteOffset":298820,
			"target":34962
		},
		{
			"buffer":0,
			"byteLength":24544,
			"byteOffset":323364,
			"target":34962
		},
		{
			"buffer":0,
			"byteLength":49088,
			"byteOffset":347908,
			"target":34962
		},
		{
			"buffer":0,
			"byteLength":576,
			"byteOffset":396996,
			"target":34962
		},
		{
			"buffer":0,
			"byteLength":576,
			"byteOffset":397572,
			"target":34962
		},
		{
			"buffer":0,
			"byteLength":168,
			"byteOffset":398148,
			"target":34963
		},
		{
			"buffer":0,
			"byteLength":288,
			"byteOffset":398316,
			"target":34962
		},
		{
			"buffer":0,
			"byteLength":288,
			"byteOffset":398604,
			"target":34962
		},
		{
			"buffer":0,
			"byteLength":72,
			"byteOffset":398892,
			"target":34963
		}
	],
	"samplers":[
		{
			"magFilter":9729,
			"minFilter":9987
		}
	],
	"buffers":[
		{
			"byteLength":398964,
			"uri":"test.bin"
		}
	]
}
