{
	"asset":{
		"generator":"Khronos glTF Blender I/O v5.0.21",
		"version":"2.0"
	},
	"scene":1,
	"scenes":[
		{
			"name":"Prefabs",
			"nodes":[
				0
			]
		},
		{
			"name":"Scene",
			"nodes":[
				1,
				3
			]
		}
	],
	"nodes":[
		{
			"mesh":0,
			"name":"Suzanne"
		},
		{
			"mesh":1,
			"name":"Brushes",
			"translation":[
				5,
				0,
				5.5
			]
		},
		{
			"mesh":0,
			"name":"Suzanne"
		},
		{
			"children":[
				2
			],
			"name":"Suzanne.001",
			"translation":[
				4.625,
				1,
				3.75
			]
		}
	],
	"materials":[
		{
			"name":"IMG_render_basecolor.png",
			"normalTexture":{
				"index":0
			},
			"occlusionTexture":{
				"index":1
			},
			"pbrMetallicRoughness":{
				"baseColorTexture":{
					"index":2
				},
				"metallicRoughnessTexture":{
					"index":1
				}
			}
		}
	],
	"meshes":[
		{
			"name":"Suzanne",
			"primitives":[
				{
					"attributes":{
						"POSITION":0,
						"NORMAL":1,
						"TEXCOORD_0":2
					},
					"indices":3
				}
			]
		},
		{
			"name":"Box.002",
			"primitives":[
				{
					"attributes":{
						"POSITION":4,
						"NORMAL":5,
						"TEXCOORD_0":6,
						"TEXCOORD_1":7
					},
					"indices":8,
					"material":0
				},
				{
					"attributes":{
						"POSITION":9,
						"NORMAL":10,
						"TEXCOORD_0":11,
						"TEXCOORD_1":12
					},
					"indices":13,
					"material":0
				}
			]
		}
	],
	"textures":[
		{
			"sampler":0,
			"source":0
		},
		{
			"sampler":0,
			"source":1
		},
		{
			"sampler":0,
			"source":2
		}
	],
	"images":[
		{
			"mimeType":"image/png",
			"name":"render_normal",
			"uri":"render_normal.png"
		},
		{
			"mimeType":"image/png",
			"name":"render_arm",
			"uri":"render_arm.png"
		},
		{
			"mimeType":"image/png",
			"name":"render_basecolor",
			"uri":"render_basecolor.png"
		}
	],
	"accessors":[
		{
			"bufferView":0,
			"componentType":5126,
			"count":555,
			"max":[
				1.3671875,
				0.984375,
				0.8515625
			],
			"min":[
				-1.3671875,
				-0.984375,
				-0.8515625
			],
			"type":"VEC3"
		},
		{
			"bufferView":1,
			"componentType":5126,
			"count":555,
			"type":"VEC3"
		},
		{
			"bufferView":2,
			"componentType":5126,
			"count":555,
			"type":"VEC2"
		},
		{
			"bufferView":3,
			"componentType":5123,
			"count":2904,
			"type":"SCALAR"
		},
		{
			"bufferView":4,
			"componentType":5126,
			"count":523,
			"max":[
				10.75,
				5.262499809265137,
				5.5
			],
			"min":[
				-20.25,
				-1,
				-12.5
			],
			"type":"VEC3"
		},
		{
			"bufferView":5,
			"componentType":5126,
			"count":523,
			"type":"VEC3"
		},
		{
			"bufferView":6,
			"componentType":5126,
			"count":523,
			"type":"VEC2"
		},
		{
			"bufferView":7,
			"componentType":5126,
			"count":523,
			"type":"VEC2"
		},
		{
			"bufferView":8,
			"componentType":5123,
			"count":1014,
			"type":"SCALAR"
		},
		{
			"bufferView":9,
			"componentType":5126,
			"count":66,
			"max":[
				1.5,
				1,
				2.25
			],
			"min":[
				-5.5,
				-1.1920928955078125e-07,
				-4
			],
			"type":"VEC3"
		},
		{
			"bufferView":10,
			"componentType":5126,
			"count":66,
			"type":"VEC3"
		},
		{
			"bufferView":11,
			"componentType":5126,
			"count":66,
			"type":"VEC2"
		},
		{
			"bufferView":12,
			"componentType":5126,
			"count":66,
			"type":"VEC2"
		},
		{
			"bufferView":13,
			"componentType":5123,
			"count":126,
			"type":"SCALAR"
		}
	],
	"bufferViews":[
		{
			"buffer":0,
			"byteLength":6660,
			"byteOffset":0,
			"target":34962
		},
		{
			"buffer":0,
			"byteLength":6660,
			"byteOffset":6660,
			"target":34962
		},
		{
			"buffer":0,
			"byteLength":4440,
			"byteOffset":13320,
			"target":34962
		},
		{
			"buffer":0,
			"byteLength":5808,
			"byteOffset":17760,
			"target":34963
		},
		{
			"buffer":0,
			"byteLength":6276,
			"byteOffset":23568,
			"target":34962
		},
		{
			"buffer":0,
			"byteLength":6276,
			"byteOffset":29844,
			"target":34962
		},
		{
			"buffer":0,
			"byteLength":4184,
			"byteOffset":36120,
			"target":34962
		},
		{
			"buffer":0,
			"byteLength":4184,
			"byteOffset":40304,
			"target":34962
		},
		{
			"buffer":0,
			"byteLength":2028,
			"byteOffset":44488,
			"target":34963
		},
		{
			"buffer":0,
			"byteLength":792,
			"byteOffset":46516,
			"target":34962
		},
		{
			"buffer":0,
			"byteLength":792,
			"byteOffset":47308,
			"target":34962
		},
		{
			"buffer":0,
			"byteLength":528,
			"byteOffset":48100,
			"target":34962
		},
		{
			"buffer":0,
			"byteLength":528,
			"byteOffset":48628,
			"target":34962
		},
		{
			"buffer":0,
			"byteLength":252,
			"byteOffset":49156,
			"target":34963
		}
	],
	"samplers":[
		{
			"magFilter":9729,
			"minFilter":9987
		}
	],
	"buffers":[
		{
			"byteLength":49408,
			"uri":"test.bin"
		}
	]
}
